 <svg  version="1.0" xmlns="http://www.w3.org/2000/svg"  width="300.000000pt" height="300.000000pt" viewBox="0 0 300.000000 300.000000"  preserveAspectRatio="xMidYMid meet">  <g transform="translate(0.000000,300.000000) scale(0.100000,-0.100000)" fill="#ffaa00" stroke="none"> <path d="M1550 1615 l0 -475 473 0 472 0 0 475 0 475 -472 0 -473 0 0 -475z m908 213 c2 -167 -1 -228 -9 -228 -8 0 -10 14 -5 46 5 43 4 48 -28 80 l-34 34 -104 -1 c-88 -2 -106 -5 -125 -22 l-23 -20 -22 20 c-34 32 -124 30 -159 -3 l-25 -24 -24 25 c-31 33 -55 32 -81 -4 l-22 -29 -23 28 c-22 25 -31 28 -80 28 -84 -1 -94 -16 -94 -142 0 -78 3 -103 17 -118 31 -35 85 -14 95 37 3 17 6 16 18 -10 18 -35 62 -55 88 -39 9 6 23 24 31 40 10 20 16 24 19 14 8 -27 45 -60 67 -60 25 0 49 23 64 60 8 22 10 22 10 5 1 -32 30 -65 56 -65 13 0 32 11 42 24 l19 23 27 -23 c22 -19 38 -23 90 -23 35 0 67 -1 73 -2 43 -8 79 4 110 37 l34 35 0 -185 0 -185 -27 -3 c-16 -2 -212 -1 -438 2 l-410 5 -1 430 c-2 389 0 431 15 437 9 4 205 6 436 5 l420 -2 3 -227z m-780 -210 c-3 -105 -4 -113 -23 -113 -19 0 -20 8 -23 113 l-3 112 26 0 26 0 -3 -112z m96 27 l20 -80 24 83 c22 72 28 83 46 80 16 -2 25 -19 41 -70 12 -37 23 -70 26 -72 3 -3 14 28 24 69 17 68 21 75 43 75 18 0 23 -4 19 -17 -2 -10 -17 -60 -33 -110 -25 -82 -31 -93 -51 -93 -20 0 -26 10 -45 75 -12 41 -24 72 -27 69 -3 -2 -14 -35 -26 -72 -18 -57 -24 -67 -44 -67 -20 0 -26 12 -57 105 -18 58 -34 106 -34 108 0 2 12 2 27 0 25 -3 29 -9 47 -83z m316 40 c0 -25 3 -45 8 -45 4 0 25 21 47 46 30 34 46 45 63 43 21 -4 20 -6 -19 -52 l-41 -48 41 -54 c43 -57 52 -81 25 -71 -9 3 -19 6 -23 6 -4 0 -24 23 -44 50 -21 28 -42 50 -47 50 -6 0 -10 -25 -10 -55 0 -51 -1 -55 -22 -51 -22 3 -23 7 -24 115 0 109 0 111 23 111 21 0 23 -5 23 -45z m310 25 c25 -25 26 -56 1 -72 -20 -12 -20 -12 0 -26 23 -16 25 -59 2 -84 -12 -14 -31 -18 -82 -18 l-66 0 0 110 0 110 63 0 c49 0 66 -4 82 -20z m-180 -82 c0 -23 -3 -29 -11 -21 -6 6 -8 20 -4 32 9 30 15 26 15 -11z"/> <path d="M2300 1667 c0 -34 1 -34 33 -28 26 6 32 12 32 31 0 21 -5 26 -32 28 -31 3 -33 2 -33 -31z"/> <path d="M2300 1573 c0 -33 1 -34 38 -31 32 3 37 6 37 28 0 21 -6 26 -37 31 -38 6 -38 6 -38 -28z"/> <path d="M694 1849 c-216 -144 -268 -187 -224 -183 8 1 116 69 240 151 l225 150 225 -151 c124 -83 231 -152 238 -154 31 -8 7 31 -38 60 l-50 33 0 88 0 88 -47 -3 -48 -3 1 -53 c1 -29 -1 -52 -5 -50 -3 2 -67 44 -142 95 l-136 91 -239 -159z m583 -8 c2 -71 -21 -63 -25 8 -2 40 0 52 10 49 8 -3 14 -24 15 -57z"/> <path d="M871 1828 c-5 -13 -5 -30 0 -40 20 -38 11 -57 -28 -60 l-38 -3 -3 -67 c-3 -64 -1 -69 31 -104 29 -32 41 -38 89 -42 58 -4 114 15 125 44 3 7 15 14 28 14 13 0 33 9 46 19 20 16 22 23 14 47 -7 18 -19 30 -32 32 -15 2 -23 11 -25 30 -3 24 -8 27 -45 30 -41 3 -42 4 -37 31 4 16 1 32 -5 35 -6 4 -9 19 -5 34 5 26 5 26 -10 8 -18 -23 -20 -42 -6 -51 17 -11 7 -55 -12 -55 -14 0 -17 5 -12 24 3 14 2 31 -2 38 -5 7 -7 24 -6 38 3 24 2 24 -13 5 -8 -11 -12 -26 -9 -35 4 -8 9 -27 12 -42 3 -23 1 -28 -17 -28 -18 0 -20 3 -12 18 6 11 6 24 -1 36 -5 10 -8 26 -5 37 7 28 -12 34 -22 7z m169 -188 c-8 -61 -32 -88 -83 -97 -74 -12 -127 35 -127 112 l0 35 108 0 108 0 -6 -50z m67 -17 c4 -11 -26 -27 -35 -19 -2 3 -2 12 2 21 6 18 27 16 33 -2z"/> <path d="M1244 1677 c-3 -9 -3 -111 -1 -229 5 -184 8 -213 21 -216 15 -3 16 20 14 224 -2 171 -6 228 -15 232 -7 2 -16 -3 -19 -11z"/> <path d="M580 1455 c0 -195 2 -226 15 -223 12 2 15 38 17 223 3 202 1 220 -15 223 -16 3 -17 -13 -17 -223z"/> <path d="M647 1564 c-4 -4 -7 -81 -7 -171 0 -151 1 -164 18 -161 10 2 17 12 16 26 0 19 5 22 37 22 21 0 41 -4 44 -10 4 -6 85 -10 211 -10 175 0 204 -2 204 -15 0 -8 6 -15 13 -15 21 0 37 51 37 121 0 62 -3 70 -31 98 l-31 31 -148 0 c-95 0 -151 4 -155 11 -4 6 -28 9 -54 8 -32 -2 -55 3 -71 14 -14 9 -32 17 -41 17 -9 0 -16 7 -15 16 1 18 -16 29 -27 18z m74 -74 c18 -10 29 -70 12 -70 -16 0 -43 35 -43 57 0 26 3 27 31 13z m115 -112 c-2 -80 -2 -82 -26 -83 -31 0 -30 -2 -30 90 l0 75 29 0 29 0 -2 -82z m329 47 c20 -19 25 -34 25 -77 l0 -53 -165 0 -165 0 0 78 0 77 140 0 c136 0 142 -1 165 -25z m-425 -75 c0 -27 -3 -30 -30 -30 -27 0 -30 3 -30 30 0 27 3 30 30 30 27 0 30 -3 30 -30z"/> <path d="M446 1003 c-3 -3 -6 -26 -6 -50 0 -32 4 -43 15 -43 11 0 15 12 15 44 0 43 -10 63 -24 49z"/> <path d="M510 1000 c0 -5 7 -10 15 -10 11 0 15 -11 15 -40 0 -22 5 -40 10 -40 6 0 10 18 10 40 0 29 4 40 15 40 8 0 15 5 15 10 0 6 -18 10 -40 10 -22 0 -40 -4 -40 -10z"/> <path d="M636 1003 c-3 -3 -6 -26 -6 -50 0 -33 4 -43 16 -43 11 0 15 6 11 20 -4 15 0 20 14 20 12 0 19 -7 19 -20 0 -11 5 -20 10 -20 6 0 10 18 10 40 0 22 0 43 1 47 0 4 -4 9 -10 11 -6 2 -11 -6 -11 -17 0 -12 -6 -21 -15 -21 -8 0 -15 6 -15 14 0 17 -14 28 -24 19z"/> <path d="M770 960 c0 -49 1 -50 30 -50 17 0 30 5 30 10 0 6 -9 10 -20 10 -11 0 -20 5 -20 10 0 6 7 10 15 10 8 0 15 5 15 10 0 6 -7 10 -15 10 -8 0 -15 5 -15 10 0 6 9 10 20 10 11 0 20 5 20 10 0 6 -13 10 -30 10 -29 0 -30 -1 -30 -50z"/> <path d="M944 985 c11 -44 25 -75 34 -75 5 0 13 15 19 33 l10 32 7 -32 c12 -54 32 -37 52 42 9 38 -14 30 -24 -7 -9 -32 -11 -31 -26 15 -7 22 -26 13 -26 -13 0 -32 -17 -32 -24 0 -3 17 -11 30 -17 30 -7 0 -9 -9 -5 -25z"/> <path d="M1119 964 c-22 -52 -20 -61 9 -43 17 10 23 10 36 -1 9 -7 19 -11 21 -8 6 6 -32 98 -40 98 -3 0 -15 -21 -26 -46z"/> <path d="M1306 1003 c-3 -3 -6 -26 -6 -50 0 -32 4 -43 16 -43 11 0 14 6 9 20 -8 26 2 25 25 -2 10 -13 22 -20 26 -16 4 5 -1 17 -11 28 -17 19 -17 21 0 40 10 11 15 23 11 28 -4 4 -16 -3 -26 -15 -21 -26 -35 -30 -27 -8 7 15 -6 29 -17 18z"/> <path d="M1430 960 c0 -27 5 -50 10 -50 6 0 10 23 10 50 0 28 -4 50 -10 50 -5 0 -10 -22 -10 -50z"/> <path d="M1507 1004 c-11 -11 -8 -94 3 -94 6 0 10 15 10 33 l1 32 15 -27 c8 -16 17 -28 19 -28 2 0 11 12 19 28 l15 27 1 -34 c0 -19 3 -31 7 -28 10 10 7 87 -3 88 -5 1 -15 -11 -23 -27 -13 -26 -15 -27 -25 -10 -23 38 -32 47 -39 40z"/> <path d="M1669 964 c-12 -25 -17 -49 -13 -52 3 -4 9 -1 11 6 6 15 35 16 51 0 6 -6 14 -9 17 -6 6 6 -31 98 -40 98 -3 0 -15 -21 -26 -46z"/> <path d="M1787 1004 c-11 -11 -8 -94 3 -94 6 0 10 15 10 32 l0 33 23 -32 c12 -18 25 -33 30 -33 4 0 7 23 7 51 0 31 -4 48 -10 44 -5 -3 -10 -16 -10 -28 -1 -21 -2 -21 -23 6 -13 15 -26 24 -30 21z"/> <path d="M1920 960 c0 -27 5 -50 10 -50 6 0 10 23 10 50 0 28 -4 50 -10 50 -5 0 -10 -22 -10 -50z"/> <path d="M2067 1003 c-4 -3 -7 -26 -7 -50 0 -44 0 -44 33 -41 30 3 32 6 34 43 0 22 -4 43 -10 47 -15 10 -42 10 -50 1z m43 -23 c0 -5 -7 -10 -15 -10 -8 0 -15 5 -15 10 0 6 7 10 15 10 8 0 15 -4 15 -10z m0 -40 c0 -5 -7 -10 -15 -10 -8 0 -15 5 -15 10 0 6 7 10 15 10 8 0 15 -4 15 -10z"/> <path d="M2187 1004 c-11 -11 -8 -94 3 -94 6 0 10 15 10 32 l0 33 23 -32 c12 -18 25 -33 30 -33 4 0 7 23 7 51 0 31 -4 48 -10 44 -5 -3 -10 -16 -10 -28 -1 -21 -2 -21 -23 6 -13 15 -26 24 -30 21z"/> <path d="M2320 960 c0 -46 2 -50 24 -50 30 0 43 17 42 53 -1 29 -19 47 -48 47 -15 0 -18 -9 -18 -50z m50 -20 c0 -5 -7 -10 -15 -10 -8 0 -15 5 -15 10 0 6 7 10 15 10 8 0 15 -4 15 -10z"/> <path d="M2430 990 c0 -11 5 -20 10 -20 6 0 10 9 10 20 0 11 -4 20 -10 20 -5 0 -10 -9 -10 -20z"/> <path d="M2510 995 c-15 -18 -6 -45 15 -45 8 0 15 -5 15 -11 0 -7 -9 -9 -21 -6 -13 3 -19 1 -16 -6 2 -7 15 -12 28 -12 32 0 40 40 10 50 -12 3 -21 11 -21 16 0 6 9 7 20 4 24 -7 27 10 4 19 -21 8 -20 8 -34 -9z"/> </g> </svg> 